<mxfile host="app.diagrams.net" agent="Mozilla/5.0 (Windows NT 10.0; Win64; x64) AppleWebKit/537.36 (KHTML, like Gecko) Chrome/132.0.0.0 Safari/537.36" version="26.0.6">
  <diagram name="Page-1" id="55a83fd1-7818-8e21-69c5-c3457e3827bb">
    <mxGraphModel dx="1750" dy="968" grid="1" gridSize="10" guides="1" tooltips="1" connect="1" arrows="1" fold="1" page="1" pageScale="1" pageWidth="1100" pageHeight="850" background="none" math="0" shadow="0">
      <root>
        <mxCell id="0" />
        <mxCell id="1" parent="0" />
        <mxCell id="gfVH6GyXzhJhxpXVjkYv-1" value="" style="triangle;whiteSpace=wrap;html=1;rotation=-90;" vertex="1" parent="1">
          <mxGeometry x="100" y="90" width="60" height="80" as="geometry" />
        </mxCell>
        <mxCell id="gfVH6GyXzhJhxpXVjkYv-2" value="" style="triangle;whiteSpace=wrap;html=1;rotation=-90;" vertex="1" parent="1">
          <mxGeometry x="85" y="200" width="60" height="80" as="geometry" />
        </mxCell>
        <mxCell id="gfVH6GyXzhJhxpXVjkYv-3" value="" style="triangle;whiteSpace=wrap;html=1;rotation=-90;" vertex="1" parent="1">
          <mxGeometry x="25" y="125" width="60" height="70" as="geometry" />
        </mxCell>
        <mxCell id="gfVH6GyXzhJhxpXVjkYv-4" value="" style="ellipse;whiteSpace=wrap;html=1;" vertex="1" parent="1">
          <mxGeometry x="280" y="120" width="120" height="130" as="geometry" />
        </mxCell>
        <mxCell id="gfVH6GyXzhJhxpXVjkYv-5" value="" style="ellipse;whiteSpace=wrap;html=1;" vertex="1" parent="1">
          <mxGeometry x="270" y="390" width="120" height="130" as="geometry" />
        </mxCell>
        <mxCell id="gfVH6GyXzhJhxpXVjkYv-6" value="" style="ellipse;whiteSpace=wrap;html=1;" vertex="1" parent="1">
          <mxGeometry x="280" y="620" width="120" height="130" as="geometry" />
        </mxCell>
        <mxCell id="gfVH6GyXzhJhxpXVjkYv-7" style="edgeStyle=orthogonalEdgeStyle;rounded=0;orthogonalLoop=1;jettySize=auto;html=1;entryX=0.05;entryY=0.626;entryDx=0;entryDy=0;entryPerimeter=0;" edge="1" parent="1" source="gfVH6GyXzhJhxpXVjkYv-3" target="gfVH6GyXzhJhxpXVjkYv-4">
          <mxGeometry relative="1" as="geometry">
            <Array as="points">
              <mxPoint x="55" y="201" />
            </Array>
          </mxGeometry>
        </mxCell>
        <mxCell id="gfVH6GyXzhJhxpXVjkYv-8" style="edgeStyle=orthogonalEdgeStyle;rounded=0;orthogonalLoop=1;jettySize=auto;html=1;entryX=0.05;entryY=0.615;entryDx=0;entryDy=0;entryPerimeter=0;" edge="1" parent="1" source="gfVH6GyXzhJhxpXVjkYv-1" target="gfVH6GyXzhJhxpXVjkYv-4">
          <mxGeometry relative="1" as="geometry" />
        </mxCell>
        <mxCell id="gfVH6GyXzhJhxpXVjkYv-9" style="edgeStyle=orthogonalEdgeStyle;rounded=0;orthogonalLoop=1;jettySize=auto;html=1;entryX=0.039;entryY=0.667;entryDx=0;entryDy=0;entryPerimeter=0;" edge="1" parent="1" source="gfVH6GyXzhJhxpXVjkYv-2" target="gfVH6GyXzhJhxpXVjkYv-4">
          <mxGeometry relative="1" as="geometry" />
        </mxCell>
        <mxCell id="gfVH6GyXzhJhxpXVjkYv-10" style="edgeStyle=orthogonalEdgeStyle;rounded=0;orthogonalLoop=1;jettySize=auto;html=1;exitX=0.5;exitY=0;exitDx=0;exitDy=0;entryX=0.278;entryY=0.133;entryDx=0;entryDy=0;entryPerimeter=0;" edge="1" parent="1" source="gfVH6GyXzhJhxpXVjkYv-2" target="gfVH6GyXzhJhxpXVjkYv-2">
          <mxGeometry relative="1" as="geometry" />
        </mxCell>
      </root>
    </mxGraphModel>
  </diagram>
</mxfile>
